<svg width="48" height="48" viewBox="0 0 48 48" fill="none" xmlns="http://www.w3.org/2000/svg">
  <style>
    path {
    fill: #000;
    }
    @media (prefers-color-scheme: dark) {
    path {
    fill: #fff;
    }
    }
  </style>
  <path
    d="M44.2026 1H46.9898C46.9898 1.08372 46.9898 1.16746 46.9898 1.25118C46.9898 1.99075 46.9898 2.73032 46.9898 3.46989C46.9999 3.53085 46.9861 3.59341 46.951 3.64423C46.9159 3.69505 46.8623 3.73012 46.8016 3.742C46.3248 3.92843 45.9153 4.25457 45.6266 4.67781C45.3379 5.10105 45.1833 5.60166 45.1833 6.11428C45.1833 6.62672 45.3379 7.12738 45.6266 7.55058C45.9153 7.97378 46.3248 8.30002 46.8016 8.48641C46.8601 8.50131 46.9111 8.53738 46.9444 8.58761C46.9779 8.63784 46.9917 8.69874 46.9828 8.75854C46.9828 9.92363 46.9828 11.0889 46.9828 12.247C46.9913 12.3077 46.9768 12.3695 46.9418 12.42C46.907 12.4704 46.8544 12.5057 46.7946 12.5191C46.3173 12.7041 45.9068 13.0292 45.6174 13.452C45.3279 13.8748 45.173 14.3753 45.173 14.888C45.173 15.4004 45.3279 15.9011 45.6174 16.3239C45.9068 16.7465 46.3173 17.0718 46.7946 17.2566C46.8537 17.273 46.9046 17.3105 46.9381 17.3618C46.9714 17.4132 46.9849 17.475 46.9758 17.5357C46.9758 18.701 46.9758 19.8661 46.9758 21.0244C46.9849 21.0849 46.9714 21.1467 46.9381 21.1982C46.9046 21.2496 46.8537 21.2869 46.7946 21.3033C46.3173 21.4882 45.9068 21.8133 45.6174 22.2362C45.3279 22.659 45.173 23.1595 45.173 23.6721C45.173 24.1846 45.3279 24.6852 45.6174 25.108C45.9068 25.5307 46.3173 25.856 46.7946 26.0407C46.8559 26.0542 46.9094 26.0908 46.9446 26.1427C46.9795 26.1946 46.9931 26.258 46.9828 26.3199C46.9828 27.4851 46.9828 28.6432 46.9828 29.8085C46.9935 29.8692 46.9806 29.932 46.9471 29.9837C46.9135 30.0354 46.8616 30.0726 46.8016 30.0875C46.3243 30.2724 45.9138 30.5975 45.6244 31.0203C45.3349 31.4432 45.18 31.9436 45.18 32.4563C45.18 32.9687 45.3349 33.4694 45.6244 33.8922C45.9138 34.3149 46.3243 34.6402 46.8016 34.8249C46.8629 34.8383 46.9164 34.875 46.9514 34.9268C46.9865 34.9787 47.0001 35.0422 46.9898 35.104C46.9898 36.2623 46.9898 37.4274 46.9898 38.5927C47.0005 38.6534 46.9876 38.7161 46.9541 38.7678C46.9205 38.8195 46.8684 38.8567 46.8086 38.8716C46.3318 39.0582 45.9223 39.3842 45.6336 39.8074C45.3449 40.2308 45.1903 40.7313 45.1903 41.2439C45.1903 41.7564 45.3449 42.257 45.6336 42.6802C45.9223 43.1036 46.3318 43.4297 46.8086 43.6161C46.8686 43.6264 46.9221 43.66 46.9574 43.7097C46.9928 43.7594 47.0069 43.821 46.9968 43.8812C46.9968 44.8511 46.9968 45.8139 46.9968 46.7838C46.9968 46.8465 46.9968 46.9163 46.9968 46.986H44.2026C43.7566 45.5906 42.976 44.8301 41.8612 44.7673C41.3072 44.7256 40.7544 44.8651 40.2863 45.165C39.9743 45.3666 39.709 45.6329 39.5082 45.9457C39.3075 46.2587 39.1761 46.611 39.1227 46.979H35.4017C35.318 46.3906 35.0352 45.8487 34.6004 45.4441C34.181 45.0544 33.6428 44.8178 33.0726 44.7721C32.5024 44.7267 31.9335 44.8748 31.4578 45.1929C31.1568 45.3961 30.9016 45.6597 30.7084 45.9674C30.5154 46.275 30.3884 46.6195 30.336 46.979H26.6288C26.5495 46.3617 26.2483 45.7942 25.7815 45.3832C25.3147 44.972 24.7143 44.7453 24.0925 44.7453C23.4708 44.7453 22.8702 44.972 22.4034 45.3832C21.9366 45.7942 21.6354 46.3617 21.5561 46.979H17.8698C17.4728 45.5836 16.6714 44.8441 15.5564 44.7743C15.0024 44.7248 14.4473 44.857 13.9747 45.151C13.6559 45.3523 13.3848 45.6207 13.1802 45.9376C12.9756 46.2546 12.8424 46.6123 12.7902 46.986H9.09691C8.66488 45.5418 7.84277 44.8161 6.71393 44.7743C6.06662 44.7351 5.4286 44.9431 4.92825 45.356C4.4279 45.7689 4.10236 46.3564 4.01721 47H1V43.7627L1.20207 43.6928C1.62047 43.5726 2.00103 43.3469 2.30735 43.0372C2.61366 42.7275 2.83547 42.3442 2.95154 41.9242C3.06762 41.5041 3.07406 41.0612 2.97029 40.6378C2.86649 40.2146 2.65594 39.8251 2.35878 39.5066C1.98806 39.1265 1.51665 38.8602 1 38.7391V34.9436H1.08361C1.42044 34.8634 1.73729 34.7149 2.01465 34.5073C2.29201 34.3 2.52402 34.0378 2.69635 33.7371C2.86868 33.4364 2.97772 33.1036 3.01675 32.7591C3.05576 32.4147 3.02392 32.0658 2.9232 31.7341C2.79416 31.2914 2.54685 30.8923 2.20792 30.58C1.86899 30.2678 1.45133 30.054 1 29.962V26.1734C1.57366 26.0562 2.08935 25.7443 2.46004 25.2906C2.83072 24.8366 3.03369 24.2688 3.03471 23.6826C3.035 23.096 2.83251 22.5273 2.4616 22.0733C2.09069 21.6192 1.57426 21.3077 1 21.1918V17.3962L1.16026 17.3543C1.80601 17.1775 2.35646 16.7537 2.6928 16.1741C3.02915 15.5945 3.12443 14.9058 2.95805 14.2565C2.83891 13.7955 2.59175 13.3779 2.24518 13.0518C1.89862 12.7258 1.46688 12.5048 1 12.4144V8.62588L1.20207 8.55614C1.6207 8.43912 2.00236 8.21648 2.31063 7.90975C2.6189 7.60284 2.84351 7.22214 2.96302 6.80373C3.08251 6.38513 3.09292 5.94316 2.99325 5.51948C2.89356 5.09586 2.68713 4.7049 2.39363 4.38389C2.01266 3.99473 1.52951 3.7214 1 3.59549V1H4.01721C4.01721 1.07675 4.01721 1.15349 4.06599 1.23024C4.21004 1.87694 4.5995 2.44227 5.15208 2.80681C5.70469 3.17133 6.37721 3.30653 7.02746 3.18382C7.55554 3.08167 8.03818 2.81582 8.4071 2.42392C8.77601 2.032 9.01245 1.53388 9.08311 1H12.7832C12.7832 1.0628 12.8179 1.12558 12.8249 1.18141C12.9502 1.79177 13.2928 2.33573 13.7889 2.71186C14.2852 3.08798 14.901 3.27062 15.5216 3.2257C16.1042 3.17621 16.6523 2.92832 17.0746 2.52334C17.4967 2.11833 17.7677 1.5807 17.842 1H21.5909C21.5842 1.05562 21.5842 1.11184 21.5909 1.16746C21.6656 1.54909 21.8264 1.90856 22.0613 2.21828C22.2961 2.52799 22.5988 2.77974 22.9458 2.95419C23.293 3.12864 23.6754 3.22119 24.0638 3.22471C24.4522 3.22824 24.8362 3.14264 25.1864 2.97452C25.573 2.79891 25.9057 2.52346 26.1506 2.17644C26.3955 1.82944 26.5438 1.42337 26.58 1H30.322C30.3717 1.48272 30.5642 1.93963 30.8744 2.31245C31.1846 2.68526 31.5988 2.95704 32.0639 3.09313C32.5252 3.25803 33.0255 3.27965 33.4991 3.15516C33.9729 3.03066 34.398 2.76587 34.7189 2.39542C35.0836 2.00931 35.3261 1.52379 35.4157 1H39.1157L39.1575 1.23024C39.3032 1.87463 39.692 2.4377 40.2425 2.80178C40.7933 3.16585 41.463 3.30274 42.1122 3.18382C42.6471 3.0893 43.138 2.82668 43.5139 2.43404C43.8896 2.04139 44.1308 1.53912 44.2026 1ZM35.0254 25.6221C35.0232 28.3915 33.9783 31.0581 32.0989 33.0898C30.2195 35.1215 27.6443 36.369 24.8869 36.5832C22.3916 36.8235 19.8924 36.1683 17.8351 34.7342C16.3323 33.7334 15.1005 32.3755 14.2493 30.7819C13.3981 29.1882 12.9543 27.4084 12.9574 25.6012H10.867C11.083 30.4853 13.1594 34.3506 17.382 36.8763C19.3661 38.042 21.622 38.6631 23.9221 38.6773C26.2225 38.6913 28.4857 38.0977 30.4838 36.9562C32.4816 35.8148 34.1437 34.166 35.302 32.176C36.4603 30.1861 37.0739 27.9255 37.0811 25.6221H35.0254ZM18.6086 16.6985C18.6218 15.4742 18.436 14.2557 18.0581 13.0914C17.845 12.3581 17.4465 11.6924 16.9013 11.1586C16.7638 11.0184 16.5989 10.9082 16.4172 10.8346C16.2352 10.761 16.0401 10.7257 15.844 10.731C15.6479 10.7362 15.4548 10.7818 15.2771 10.865C15.0994 10.9481 14.9407 11.0672 14.8108 11.2144C14.3608 11.6595 14.0218 12.2045 13.8215 12.8053C12.9771 15.1465 12.9232 17.7006 13.668 20.0755C13.866 20.8398 14.2627 21.5379 14.8178 22.0987C14.9488 22.2443 15.1078 22.3617 15.2856 22.4435C15.4631 22.5256 15.6556 22.5707 15.8512 22.5758C16.0466 22.581 16.2413 22.5464 16.4229 22.4741C16.6047 22.4016 16.7699 22.2928 16.9083 22.1545C17.2976 21.7889 17.6041 21.3441 17.8071 20.8499C18.3591 19.5367 18.6321 18.123 18.6086 16.6985ZM26.7125 16.6636C26.7125 16.5171 26.7125 16.3774 26.7125 16.238C26.6946 15.1376 26.5018 14.0471 26.1412 13.0077C25.9274 12.3361 25.5627 11.7226 25.0749 11.2144C24.9397 11.0602 24.773 10.9366 24.586 10.8519C24.3993 10.7673 24.1965 10.7235 23.9913 10.7235C23.7863 10.7235 23.5836 10.7673 23.3968 10.8519C23.2099 10.9366 23.0432 11.0602 22.9079 11.2144C22.5707 11.5511 22.2969 11.9458 22.0996 12.3797C21.6547 13.3716 21.3881 14.4346 21.3121 15.5193C21.1581 17.0531 21.3121 18.6022 21.7651 20.0755C21.9717 20.8326 22.3646 21.5258 22.9079 22.0917C23.0432 22.2461 23.2099 22.3696 23.3968 22.4542C23.5836 22.5389 23.7863 22.5826 23.9913 22.5826C24.1965 22.5826 24.3993 22.5389 24.586 22.4542C24.773 22.3696 24.9397 22.2461 25.0749 22.0917C25.4815 21.6739 25.7991 21.1778 26.0087 20.6335C26.502 19.3695 26.7412 18.0204 26.7125 16.6636ZM29.3674 16.5451C29.3584 17.6066 29.4896 18.6646 29.7575 19.6916C29.954 20.5386 30.3507 21.3257 30.9143 21.987C31.0483 22.169 31.2223 22.3175 31.4231 22.4213C31.6236 22.5251 31.8454 22.581 32.0711 22.585C32.2969 22.5891 32.5204 22.5411 32.7247 22.4446C32.9289 22.3482 33.1081 22.206 33.2485 22.029C33.6351 21.6155 33.936 21.1292 34.1336 20.5986C34.5316 19.6226 34.7669 18.588 34.8304 17.5357C34.9531 16.0194 34.7708 14.4938 34.2938 13.0494C34.0797 12.3322 33.6863 11.6814 33.151 11.1586C33.0252 11.0241 32.8741 10.9159 32.7061 10.8403C32.5383 10.7645 32.3572 10.7229 32.1732 10.7178C31.9892 10.7126 31.806 10.7439 31.6341 10.81C31.4623 10.8762 31.3053 10.9756 31.1721 11.1029C30.7279 11.492 30.3837 11.9826 30.1687 12.5331C29.6377 13.8038 29.3652 15.1676 29.3674 16.5451Z"
    fill="black" />
</svg>