<svg width="40" height="40" viewBox="0 0 40 40" fill="none" xmlns="http://www.w3.org/2000/svg">
<path d="M30.9797 7.5H32.4945C32.4945 7.5455 32.4945 7.59101 32.4945 7.63651C32.4945 8.03845 32.4945 8.44039 32.4945 8.84233C32.5 8.87546 32.4925 8.90946 32.4734 8.93708C32.4543 8.9647 32.4252 8.98376 32.3922 8.99022C32.1331 9.09154 31.9105 9.26879 31.7536 9.49881C31.5967 9.72883 31.5127 10.0009 31.5127 10.2795C31.5127 10.558 31.5967 10.8301 31.7536 11.0601C31.9105 11.2901 32.1331 11.4674 32.3922 11.5687C32.424 11.5768 32.4517 11.5964 32.4698 11.6237C32.488 11.651 32.4955 11.6841 32.4907 11.7166C32.4907 12.3498 32.4907 12.9831 32.4907 13.6125C32.4953 13.6455 32.4874 13.6791 32.4684 13.7065C32.4495 13.7339 32.4209 13.7531 32.3884 13.7604C32.129 13.8609 31.9059 14.0376 31.7486 14.2674C31.5913 14.4972 31.5071 14.7692 31.5071 15.0478C31.5071 15.3263 31.5913 15.5984 31.7486 15.8282C31.9059 16.0579 32.129 16.2347 32.3884 16.3351C32.4205 16.344 32.4482 16.3644 32.4664 16.3923C32.4845 16.4202 32.4918 16.4538 32.4869 16.4868C32.4869 17.1201 32.4869 17.7533 32.4869 18.3828C32.4918 18.4157 32.4845 18.4493 32.4664 18.4773C32.4482 18.5052 32.4205 18.5255 32.3884 18.5344C32.129 18.6349 31.9059 18.8116 31.7486 19.0414C31.5913 19.2712 31.5071 19.5432 31.5071 19.8218C31.5071 20.1003 31.5913 20.3724 31.7486 20.6022C31.9059 20.8319 32.129 21.0087 32.3884 21.1091C32.4217 21.1164 32.4508 21.1363 32.4699 21.1645C32.4889 21.1927 32.4963 21.2272 32.4907 21.2608C32.4907 21.8941 32.4907 22.5235 32.4907 23.1568C32.4965 23.1898 32.4895 23.2239 32.4713 23.252C32.453 23.2801 32.4248 23.3003 32.3922 23.3084C32.1328 23.4089 31.9097 23.5856 31.7524 23.8154C31.5951 24.0452 31.5109 24.3172 31.5109 24.5958C31.5109 24.8743 31.5951 25.1464 31.7524 25.3762C31.9097 25.6059 32.1328 25.7827 32.3922 25.8831C32.4255 25.8904 32.4546 25.9103 32.4736 25.9385C32.4927 25.9667 32.5001 26.0012 32.4945 26.0348C32.4945 26.6643 32.4945 27.2975 32.4945 27.9308C32.5003 27.9638 32.4933 27.9979 32.4751 28.026C32.4568 28.0541 32.4285 28.0743 32.396 28.0824C32.1369 28.1838 31.9143 28.361 31.7574 28.591C31.6005 28.8211 31.5165 29.0931 31.5165 29.3717C31.5165 29.6502 31.6005 29.9223 31.7574 30.1523C31.9143 30.3824 32.1369 30.5596 32.396 30.6609C32.4286 30.6665 32.4577 30.6848 32.4769 30.7118C32.4961 30.7388 32.5038 30.7723 32.4983 30.805C32.4983 31.3321 32.4983 31.8554 32.4983 32.3825C32.4983 32.4166 32.4983 32.4545 32.4983 32.4924H30.9797C30.7373 31.734 30.3131 31.3207 29.7072 31.2866C29.4061 31.2639 29.1057 31.3397 28.8513 31.5027C28.6817 31.6123 28.5375 31.757 28.4284 31.927C28.3193 32.0971 28.2479 32.2886 28.2189 32.4886H26.1966C26.1511 32.1688 25.9974 31.8743 25.7611 31.6544C25.5332 31.4426 25.2407 31.314 24.9308 31.2892C24.6209 31.2645 24.3117 31.345 24.0532 31.5179C23.8896 31.6283 23.7509 31.7716 23.6459 31.9388C23.541 32.106 23.472 32.2932 23.4435 32.4886H21.4287C21.3856 32.1531 21.2219 31.8447 20.9682 31.6213C20.7145 31.3978 20.3882 31.2746 20.0503 31.2746C19.7124 31.2746 19.386 31.3978 19.1323 31.6213C18.8786 31.8447 18.7149 32.1531 18.6718 32.4886H16.6684C16.4526 31.7302 16.0171 31.3283 15.4111 31.2904C15.11 31.2635 14.8083 31.3353 14.5515 31.4951C14.3782 31.6045 14.2309 31.7504 14.1197 31.9226C14.0085 32.0949 13.9361 32.2893 13.9077 32.4924H11.9005C11.6657 31.7075 11.2189 31.3131 10.6054 31.2904C10.2536 31.2691 9.90685 31.3821 9.63492 31.6065C9.36299 31.8309 9.18607 32.1502 9.13979 32.5H7.5V30.7406L7.60982 30.7026C7.83721 30.6373 8.04404 30.5146 8.21052 30.3463C8.37699 30.178 8.49754 29.9697 8.56062 29.7414C8.62371 29.5131 8.62721 29.2724 8.57081 29.0423C8.5144 28.8123 8.39997 28.6006 8.23847 28.4275C8.03699 28.2209 7.78079 28.0762 7.5 28.0104V25.9476H7.54544C7.7285 25.904 7.9007 25.8233 8.05144 25.7105C8.20218 25.5978 8.32827 25.4553 8.42193 25.2919C8.51559 25.1285 8.57485 24.9476 8.59606 24.7604C8.61726 24.5732 8.59996 24.3836 8.54522 24.2033C8.47509 23.9627 8.34068 23.7458 8.15648 23.5761C7.97228 23.4064 7.74529 23.2902 7.5 23.2402V21.1812C7.81177 21.1175 8.09204 20.948 8.2935 20.7014C8.49496 20.4547 8.60527 20.1461 8.60582 19.8275C8.60598 19.5087 8.49593 19.1996 8.29435 18.9529C8.09277 18.7061 7.8121 18.5368 7.5 18.4738V16.411L7.5871 16.3882C7.93805 16.2921 8.23721 16.0618 8.42 15.7468C8.6028 15.4318 8.65458 15.0575 8.56416 14.7046C8.49941 14.4541 8.36508 14.2271 8.17673 14.0499C7.98838 13.8727 7.75374 13.7526 7.5 13.7035V11.6445L7.60982 11.6066C7.83734 11.543 8.04476 11.422 8.2123 11.2553C8.37984 11.0885 8.50191 10.8816 8.56686 10.6542C8.6318 10.4267 8.63746 10.1865 8.58329 9.95624C8.52911 9.72601 8.41692 9.51353 8.25741 9.33907C8.05036 9.12757 7.78778 8.97902 7.5 8.91059V7.5H9.13979C9.13979 7.54171 9.13979 7.58342 9.1663 7.62513C9.24459 7.9766 9.45625 8.28384 9.75657 8.48196C10.0569 8.68007 10.4224 8.75355 10.7758 8.68686C11.0628 8.63134 11.3251 8.48686 11.5256 8.27387C11.7261 8.06087 11.8546 7.79015 11.893 7.5L13.9039 7.5C13.9039 7.53413 13.9228 7.56825 13.9266 7.59859C13.9947 7.93031 14.1809 8.22594 14.4505 8.43036C14.7202 8.63477 15.0549 8.73403 15.3922 8.70962C15.7088 8.68272 16.0067 8.548 16.2362 8.3279C16.4656 8.10779 16.6129 7.8156 16.6533 7.5L18.6907 7.5C18.6871 7.53023 18.6871 7.56078 18.6907 7.59101C18.7313 7.79842 18.8187 7.99378 18.9464 8.16211C19.074 8.33043 19.2385 8.46725 19.4271 8.56206C19.6158 8.65687 19.8236 8.70717 20.0347 8.70908C20.2458 8.711 20.4545 8.66448 20.6448 8.57311C20.8549 8.47767 21.0357 8.32797 21.1688 8.13937C21.3019 7.95078 21.3825 7.73009 21.4022 7.5H23.4359C23.4629 7.76235 23.5675 8.01067 23.7361 8.21329C23.9047 8.4159 24.1298 8.56361 24.3826 8.63757C24.6333 8.72719 24.9052 8.73894 25.1626 8.67128C25.4201 8.60362 25.6511 8.45971 25.8255 8.25838C26.0237 8.04854 26.1555 7.78467 26.2042 7.5H28.2151L28.2378 7.62513C28.317 7.97534 28.5283 8.28136 28.8275 8.47923C29.1268 8.67709 29.4908 8.75149 29.8436 8.68686C30.1343 8.63549 30.4011 8.49276 30.6054 8.27937C30.8096 8.06597 30.9407 7.793 30.9797 7.5V7.5ZM25.9921 20.8816C25.9909 22.3867 25.423 23.8359 24.4016 24.9401C23.3802 26.0443 21.9806 26.7223 20.482 26.8387C19.1259 26.9693 17.7676 26.6132 16.6495 25.8338C15.8328 25.2899 15.1633 24.5519 14.7007 23.6858C14.2381 22.8197 13.9969 21.8524 13.9986 20.8702H12.8625C12.9799 23.5246 14.1084 25.6253 16.4033 26.998C17.4816 27.6315 18.7076 27.9691 19.9577 27.9768C21.2079 27.9844 22.4379 27.6618 23.5238 27.0414C24.6096 26.4211 25.5129 25.525 26.1424 24.4435C26.7719 23.362 27.1054 22.1334 27.1093 20.8816H25.9921ZM17.0699 16.0318C17.0771 15.3664 16.9761 14.7042 16.7707 14.0714C16.6549 13.6729 16.4383 13.3111 16.142 13.021C16.0673 12.9448 15.9777 12.8849 15.8789 12.8449C15.78 12.8049 15.674 12.7857 15.5674 12.7886C15.4608 12.7914 15.3559 12.8162 15.2593 12.8614C15.1627 12.9066 15.0765 12.9713 15.0059 13.0513C14.7613 13.2932 14.5771 13.5894 14.4682 13.9159C14.0093 15.1883 13.98 16.5764 14.3848 17.8671C14.4924 18.2825 14.708 18.6619 15.0097 18.9667C15.0809 19.0458 15.1673 19.1096 15.2639 19.1541C15.3604 19.1987 15.465 19.2232 15.5713 19.226C15.6775 19.2288 15.7833 19.21 15.882 19.1707C15.9808 19.1313 16.0706 19.0722 16.1458 18.997C16.3574 18.7983 16.524 18.5566 16.6343 18.288C16.9343 17.5743 17.0827 16.806 17.0699 16.0318ZM21.4742 16.0128C21.4742 15.9332 21.4742 15.8573 21.4742 15.7815C21.4645 15.1835 21.3597 14.5908 21.1637 14.0259C21.0475 13.6609 20.8493 13.3275 20.5842 13.0513C20.5107 12.9675 20.4201 12.9003 20.3185 12.8543C20.217 12.8083 20.1068 12.7845 19.9953 12.7845C19.8839 12.7845 19.7737 12.8083 19.6722 12.8543C19.5706 12.9003 19.48 12.9675 19.4065 13.0513C19.2232 13.2343 19.0744 13.4488 18.9672 13.6846C18.7254 14.2237 18.5805 14.8014 18.5392 15.3909C18.4555 16.2245 18.5392 17.0664 18.7854 17.8671C18.8977 18.2786 19.1112 18.6553 19.4065 18.9629C19.48 19.0468 19.5706 19.1139 19.6722 19.1599C19.7737 19.2059 19.8839 19.2297 19.9953 19.2297C20.1068 19.2297 20.217 19.2059 20.3185 19.1599C20.4201 19.1139 20.5107 19.0468 20.5842 18.9629C20.8052 18.7358 20.9778 18.4662 21.0917 18.1704C21.3598 17.4834 21.4898 16.7502 21.4742 16.0128ZM22.9171 15.9484C22.9122 16.5253 22.9835 17.1003 23.1291 17.6585C23.2359 18.1188 23.4515 18.5466 23.7578 18.906C23.8306 19.0049 23.9252 19.0856 24.0343 19.142C24.1433 19.1984 24.2638 19.2288 24.3865 19.231C24.5092 19.2332 24.6307 19.2071 24.7417 19.1547C24.8527 19.1023 24.9501 19.025 25.0264 18.9288C25.2365 18.7041 25.4 18.4398 25.5074 18.1514C25.7237 17.621 25.8516 17.0587 25.8861 16.4868C25.9528 15.6627 25.8537 14.8336 25.5945 14.0486C25.4781 13.6588 25.2643 13.3051 24.9734 13.021C24.905 12.9479 24.8229 12.8891 24.7316 12.848C24.6404 12.8068 24.542 12.7842 24.442 12.7814C24.342 12.7786 24.2424 12.7956 24.149 12.8315C24.0556 12.8675 23.9703 12.9215 23.8979 12.9907C23.6565 13.2022 23.4694 13.4688 23.3526 13.768C23.064 14.4586 22.9159 15.1998 22.9171 15.9484Z" fill="black"/>
</svg>
