<svg width="76" height="76" viewBox="0 0 76 76" fill="none" xmlns="http://www.w3.org/2000/svg">
<path d="M71.0785 0.239563H75.635C75.635 0.377019 75.635 0.514476 75.635 0.651932C75.635 1.86613 75.635 3.08033 75.635 4.29453C75.6517 4.39461 75.629 4.4973 75.5715 4.58074C75.5141 4.66417 75.4265 4.72177 75.3275 4.74126C74.548 5.04733 73.8784 5.58279 73.4064 6.27764C72.9344 6.97249 72.6819 7.79438 72.6819 8.63586C72.6819 9.47733 72.9344 10.2992 73.4064 10.9941C73.8784 11.6889 74.548 12.2244 75.3275 12.5305C75.423 12.5549 75.5062 12.6141 75.5609 12.6966C75.6156 12.7791 75.6379 12.8791 75.6236 12.9772C75.6236 14.8901 75.6236 16.8031 75.6236 18.7045C75.6375 18.8042 75.6136 18.9055 75.5566 18.9883C75.4996 19.0711 75.4137 19.1292 75.3161 19.1513C74.5355 19.4548 73.8646 19.9887 73.3915 20.6828C72.9183 21.3768 72.6651 22.1986 72.6651 23.0401C72.6651 23.8816 72.9183 24.7034 73.3915 25.3975C73.8646 26.0916 74.5355 26.6255 75.3161 26.929C75.4125 26.9559 75.4959 27.0173 75.5505 27.1017C75.605 27.1861 75.627 27.2876 75.6122 27.3872C75.6122 29.3001 75.6122 31.2131 75.6122 33.1146C75.627 33.2141 75.605 33.3157 75.5505 33.4001C75.4959 33.4845 75.4125 33.5459 75.3161 33.5727C74.5355 33.8762 73.8646 34.4101 73.3915 35.1042C72.9183 35.7983 72.6651 36.6201 72.6651 37.4616C72.6651 38.3031 72.9183 39.1249 73.3915 39.819C73.8646 40.5131 74.5355 41.047 75.3161 41.3505C75.416 41.3726 75.5037 41.4325 75.5609 41.5177C75.6182 41.603 75.6406 41.7072 75.6236 41.8087C75.6236 43.7216 75.6236 45.6231 75.6236 47.536C75.641 47.6359 75.6202 47.7387 75.5652 47.8237C75.5102 47.9087 75.4253 47.9697 75.3275 47.9942C74.5469 48.2977 73.876 48.8316 73.4029 49.5257C72.9297 50.2198 72.6765 51.0416 72.6765 51.8831C72.6765 52.7246 72.9297 53.5464 73.4029 54.2405C73.876 54.9346 74.5469 55.4684 75.3275 55.7719C75.4274 55.794 75.5151 55.8539 75.5723 55.9392C75.6296 56.0245 75.652 56.1287 75.635 56.2301C75.635 58.1316 75.635 60.0446 75.635 61.9575C75.6524 62.0574 75.6315 62.1602 75.5766 62.2452C75.5216 62.3302 75.4367 62.3911 75.3388 62.4157C74.5593 62.7217 73.8898 63.2572 73.4178 63.9521C72.9458 64.6469 72.6933 65.4688 72.6933 66.3103C72.6933 67.1517 72.9458 67.9736 73.4178 68.6685C73.8898 69.3633 74.5593 69.8988 75.3388 70.2049C75.437 70.2217 75.5245 70.277 75.5821 70.3586C75.6398 70.4402 75.6629 70.5414 75.6464 70.6402C75.6464 72.2324 75.6464 73.8131 75.6464 75.4053C75.6464 75.5084 75.6464 75.6229 75.6464 75.7375H71.0785C70.3494 73.4466 69.0736 72.198 67.251 72.0949C66.3452 72.0263 65.4417 72.2554 64.6765 72.7478C64.1662 73.0787 63.7324 73.5158 63.4042 74.0295C63.0761 74.5433 62.8612 75.1218 62.7742 75.726H56.6912C56.5544 74.76 56.0919 73.8704 55.3812 73.206C54.6958 72.5663 53.8159 72.1777 52.8837 72.1029C51.9515 72.028 51.0214 72.2714 50.2437 72.7936C49.7518 73.1271 49.3346 73.5602 49.0188 74.0651C48.703 74.5701 48.4955 75.1358 48.4097 75.726H42.3495C42.2198 74.7124 41.7273 73.7809 40.9642 73.1059C40.201 72.4309 39.2194 72.0586 38.2031 72.0586C37.1867 72.0586 36.2051 72.4309 35.442 73.1059C34.6788 73.7809 34.1863 74.7124 34.0566 75.726H28.0306C27.3813 73.4351 26.0713 72.2209 24.2487 72.1064C23.3428 72.025 22.4352 72.2421 21.6628 72.7249C21.1417 73.0553 20.6984 73.496 20.364 74.0163C20.0295 74.5366 19.8119 75.124 19.7263 75.7375H13.6889C12.9826 73.3664 11.6384 72.1751 9.79305 72.1064C8.73494 72.0421 7.69191 72.3833 6.87395 73.0613C6.05598 73.7393 5.52382 74.7037 5.3846 75.7604H0.452148V70.4454L0.782497 70.3309C1.46648 70.1334 2.08862 69.7627 2.58937 69.2543C3.09013 68.7459 3.45273 68.1168 3.64248 67.4271C3.83223 66.7374 3.84278 66.0103 3.67311 65.3154C3.50345 64.6205 3.15925 63.9809 2.67346 63.4581C2.06739 62.834 1.29677 62.3969 0.452148 62.198L0.452148 55.9667H0.588845C1.13948 55.8349 1.65746 55.5912 2.11088 55.2505C2.5643 54.9099 2.94356 54.4795 3.2253 53.9858C3.50703 53.4922 3.68528 52.9458 3.74906 52.3803C3.81285 51.8147 3.76081 51.2421 3.59616 50.6975C3.38521 49.9707 2.98089 49.3155 2.42683 48.8028C1.87276 48.2901 1.18998 47.9392 0.452148 47.788L0.452148 41.5681C1.38995 41.3756 2.23299 40.8637 2.83898 40.1187C3.44496 39.3737 3.77678 38.4413 3.77842 37.4788C3.77893 36.5158 3.44789 35.5822 2.84155 34.8368C2.2352 34.0914 1.39094 33.58 0.452148 33.3895L0.452148 27.1581L0.714149 27.0894C1.76981 26.7992 2.66966 26.1032 3.2195 25.1517C3.76935 24.2002 3.92509 23.0695 3.65312 22.0035C3.45836 21.2467 3.05428 20.561 2.48774 20.0258C1.9212 19.4905 1.21539 19.1277 0.452148 18.9795L0.452148 12.7596L0.782497 12.645C1.46685 12.4527 2.09077 12.0873 2.59473 11.5836C3.09869 11.0799 3.46587 10.4547 3.66123 9.76775C3.85659 9.08078 3.8736 8.35492 3.71065 7.65945C3.5477 6.96398 3.21022 6.32211 2.73042 5.79509C2.10762 5.15617 1.31779 4.70743 0.452148 4.50071L0.452148 0.239563H5.3846C5.3846 0.365565 5.3846 0.491566 5.46434 0.617568C5.69982 1.6793 6.33649 2.60743 7.23986 3.2059C8.14323 3.80437 9.24257 4.02633 10.3057 3.82488C11.169 3.65715 11.9579 3.2207 12.561 2.57728C13.1641 1.93387 13.5507 1.11606 13.6661 0.239563L19.7149 0.239563C19.7149 0.342655 19.7719 0.445748 19.7833 0.537385C19.988 1.53947 20.5481 2.43251 21.3592 3.05001C22.1703 3.66752 23.177 3.96735 24.1917 3.89361C25.1441 3.81238 26.0401 3.4054 26.7304 2.7405C27.4206 2.07559 27.8634 1.19292 27.985 0.239563L34.1136 0.239563C34.1026 0.330868 34.1026 0.42317 34.1136 0.514476C34.2356 1.14105 34.4986 1.7312 34.8826 2.23968C35.2666 2.74816 35.7613 3.16145 36.3287 3.44787C36.8962 3.73428 37.5214 3.88621 38.1563 3.89199C38.7912 3.89778 39.419 3.75727 39.9915 3.48124C40.6233 3.19295 41.1673 2.74071 41.5677 2.171C41.9681 1.60128 42.2104 0.934634 42.2698 0.239563L48.3869 0.239563C48.4683 1.03207 48.7827 1.78222 49.2899 2.39428C49.7972 3.00634 50.4742 3.45255 51.2348 3.67597C51.9888 3.94669 52.8065 3.98218 53.5809 3.7778C54.3553 3.57342 55.0503 3.13868 55.5749 2.5305C56.171 1.8966 56.5674 1.0995 56.714 0.239563L62.7628 0.239563L62.8311 0.617568C63.0692 1.67549 63.7048 2.59992 64.6049 3.19764C65.505 3.79536 66.6 4.0201 67.6611 3.82488C68.5355 3.66968 69.3381 3.23852 69.9526 2.5939C70.567 1.94927 70.9613 1.12467 71.0785 0.239563V0.239563ZM56.0761 40.6632C56.0724 45.2097 54.364 49.5875 51.2918 52.9232C48.2195 56.2588 44.0094 58.3068 39.5017 58.6585C35.4226 59.0532 31.3368 57.9773 27.9736 55.623C25.517 53.9798 23.5031 51.7505 22.1117 49.1342C20.7203 46.5178 19.9947 43.5958 19.9997 40.6288H16.5823C16.9354 48.6471 20.33 54.993 27.2332 59.1396C30.4764 61.0535 34.1643 62.0734 37.9247 62.0965C41.6851 62.1195 45.3851 61.1449 48.6513 59.271C51.9175 57.397 54.6344 54.69 56.528 51.423C58.4216 48.156 59.4248 44.4446 59.4365 40.6632H56.0761ZM29.2381 26.0126C29.2599 24.0026 28.9559 22.0024 28.3382 20.0906C27.9898 18.8869 27.3385 17.794 26.4472 16.9176C26.2225 16.6875 25.953 16.5063 25.6556 16.3855C25.3582 16.2647 25.0393 16.2068 24.7187 16.2154C24.398 16.224 24.0826 16.2989 23.792 16.4355C23.5015 16.5721 23.242 16.7674 23.0298 17.0092C22.2941 17.74 21.74 18.6347 21.4122 19.6209C20.0319 23.4647 19.9439 27.6578 21.1616 31.5567C21.485 32.8116 22.1336 33.9579 23.0412 34.8786C23.2552 35.1175 23.5153 35.3101 23.8057 35.4448C24.0961 35.5795 24.4107 35.6533 24.7303 35.6619C25.05 35.6705 25.368 35.6136 25.6651 35.4947C25.9623 35.3757 26.2322 35.1973 26.4586 34.9702C27.095 34.37 27.5961 33.6396 27.9281 32.8282C28.8304 30.6724 29.2766 28.3513 29.2381 26.0126ZM42.4862 25.9554C42.4862 25.7148 42.4862 25.4857 42.4862 25.2566C42.4571 23.4501 42.1418 21.6598 41.5521 19.9531C41.2028 18.8506 40.6066 17.8435 39.8092 17.0092C39.5879 16.756 39.3155 16.5531 39.01 16.4141C38.7046 16.2751 38.3732 16.2032 38.0379 16.2032C37.7026 16.2032 37.3712 16.2751 37.0658 16.4141C36.7603 16.5531 36.4878 16.756 36.2665 17.0092C35.7154 17.5619 35.2678 18.2099 34.9451 18.9222C34.2179 20.5509 33.7822 22.2958 33.6579 24.0768C33.4061 26.5948 33.6578 29.138 34.3984 31.5567C34.7361 32.7999 35.3784 33.938 36.2665 34.8671C36.4878 35.1204 36.7603 35.3233 37.0658 35.4623C37.3712 35.6013 37.7026 35.6731 38.0379 35.6731C38.3732 35.6731 38.7046 35.6013 39.01 35.4623C39.3155 35.3233 39.5879 35.1204 39.8092 34.8671C40.4739 34.1812 40.9932 33.3667 41.3357 32.4731C42.1422 30.3979 42.5332 28.1829 42.4862 25.9554ZM46.8263 25.7606C46.8116 27.5034 47.0261 29.2405 47.4642 30.9267C47.7853 32.3171 48.4338 33.6095 49.3552 34.6953C49.5743 34.994 49.8589 35.2379 50.1868 35.4081C50.5148 35.5784 50.8773 35.6704 51.2464 35.677C51.6154 35.6837 51.981 35.6048 52.3148 35.4465C52.6486 35.2881 52.9417 35.0546 53.1713 34.764C53.8031 34.0851 54.2949 33.287 54.618 32.4158C55.2685 30.8135 55.6533 29.1148 55.7571 27.3872C55.9579 24.8978 55.6596 22.3932 54.88 20.0218C54.5299 18.8442 53.8869 17.7758 53.0118 16.9176C52.8061 16.6968 52.5589 16.5191 52.2845 16.3949C52.0102 16.2706 51.714 16.2023 51.4132 16.1937C51.1124 16.1852 50.8129 16.2367 50.5321 16.3452C50.2512 16.4537 49.9944 16.6171 49.7767 16.826C49.0505 17.465 48.4878 18.2705 48.1363 19.1742C47.2683 21.2602 46.823 23.4994 46.8263 25.7606Z" fill="white"/>
</svg>
