<svg width="24" height="26" viewBox="0 0 24 26" fill="none" xmlns="http://www.w3.org/2000/svg">
<g clip-path="url(#clip0_666_3063)">
<path fill-rule="evenodd" clip-rule="evenodd" d="M0.0296447 18.8309L5.85592 22.3332V22.3604H5.90118L11.9561 26L18.0017 22.3604H18.038V22.3385L23.8643 18.8309V18.6194L24 18.3608L23.8643 18.2961V13.2291L23.9229 13.1989L23.8643 13.0954V12.8518L23.9453 12.7088L23.8643 12.667V7.57255L23.914 7.54886L23.8643 7.45415V7.23109L23.6919 7.12589L23.6186 6.98613L23.5312 7.02776L12.0198 0L0.0296447 7.22222V12.6336L0 12.6489L0.0296447 12.7012V13.2431L0.0214515 13.2576L0.0296447 13.2618V18.2257L0.00138735 18.2391L0.0296447 18.293V18.8309ZM0.712977 13.6134V17.9001L5.0387 15.839L0.712977 13.6134ZM0.808944 12.9478L5.76023 15.4952L5.85592 15.4496V10.419L5.78735 10.3863L0.808944 12.9478ZM5.85592 16.2594V21.5775L0.830704 18.5475L5.74858 16.2042L5.85592 16.2594ZM6.38557 16.532L11.2202 19.0194L6.38557 21.5069V16.532ZM11.6822 18.5421L6.47011 15.8604L11.6822 13.377V18.5421ZM12.2119 19.5296V25.1014L17.198 22.095L12.2119 19.5296ZM17.5084 21.5397L12.61 19.0194L17.5084 16.4992V21.5397ZM18.038 10.3845L23.0206 12.9481L18.038 15.5116V10.3845ZM23.1992 13.5713L18.7511 15.8598L23.1992 17.9792V13.5713ZM18.0413 16.225L18.038 16.2267V21.5884L23.0082 18.5916L18.0413 16.225ZM12.2119 13.4475L17.3197 15.8812L12.2119 18.5092V13.4475ZM11.6822 19.4968L6.67649 22.0722L11.6822 25.0905V19.4968ZM23.1992 12.3249V7.88945L18.7234 10.0221L23.1992 12.3249ZM17.5084 9.39694V4.35584L12.6094 6.87639L17.5084 9.39694ZM12.2119 7.38694L17.2919 10.0006L12.2119 12.4212V7.38694ZM11.6822 6.39935V0.94307L6.80726 3.89118L11.6822 6.39935ZM6.38557 4.3893L11.2196 6.8764L6.38557 9.3635V4.3893ZM12.6112 12.9343L17.5084 10.601V15.2677L12.6112 12.9343ZM11.6822 7.35343V12.4917L6.49718 10.0211L11.6822 7.35343ZM11.1349 12.9343L6.38557 10.6714V15.1972L11.1349 12.9343ZM0.712977 12.2821L5.06578 10.0425L0.712977 7.96854V12.2821ZM1.00116 7.40241L5.77561 9.67733L5.85592 9.63601V4.46651L1.00116 7.40241ZM22.8398 7.35722L18.038 9.64512V4.425L22.8398 7.35722ZM12.2119 6.36586L17.0989 3.85148L12.2119 0.867175V6.36586Z" fill="black"/>
</g>
<defs>
<clipPath id="clip0_666_3063">
<rect width="24" height="26" fill="white"/>
</clipPath>
</defs>
</svg>
