<?xml version="1.0" encoding="UTF-8"?><svg id="Layer_1" xmlns="http://www.w3.org/2000/svg" width="47" height="31" viewBox="0 0 402 149"><defs><style>.cls-1{fill:#152521;}</style></defs><path class="cls-1" d="M72.11,109.88c-2.98,0-5.54-.7-7.68-2.11-2.15-1.41-3.77-3.62-4.88-6.64-.69-2.04-1.18-4.53-1.45-7.49-.28-2.95-.45-6.05-.52-9.28-.07-3.3-.14-6.5-.21-9.6,0-.84-.21-1.27-.62-1.27-.35,0-.69.28-1.04.84-1.31,2.46-2.87,5.27-4.67,8.44-1.73,3.16-3.46,6.33-5.19,9.49-1.73,3.16-3.29,6.01-4.67,8.54-1.31,2.46-2.25,4.25-2.8,5.38-.69,1.55-1.8,2.53-3.32,2.95-1.45.49-3.29.6-5.5.31-2.21-.28-3.77-1.16-4.67-2.64-.97-1.55-.8-3.16.52-4.85.9-1.13,2.18-2.81,3.84-5.06,1.66-2.32,3.53-4.92,5.6-7.8,2.08-2.95,4.19-5.97,6.33-9.07,2.22-3.16,4.29-6.19,6.23-9.07,1.94-2.95,3.56-5.52,4.88-7.7,1.39-2.25,2.28-3.9,2.7-4.96.42-.98.86-2.07,1.35-3.27.48-1.19.73-2.42.73-3.69,0-4.64-.45-8.12-1.35-10.44-.83-2.39-1.97-3.97-3.43-4.75-1.39-.84-2.91-1.27-4.57-1.27-1.25,0-2.59.25-4.05.74-1.39.49-2.28.95-2.7,1.37-.76.77-1.49.91-2.18.42-.69-.49-.9-1.3-.62-2.42.76-2.6,2.15-4.92,4.15-6.96,2.02-2.11,4.82-3.16,8.42-3.16,3.81,0,6.82,1.09,9.03,3.27,2.21,2.18,3.8,5.66,4.77,10.44.97,4.78,1.45,11.11,1.45,18.98,0,9.28.14,16.7.42,22.25.28,5.55.73,9.74,1.35,12.55.62,2.74,1.49,4.57,2.59,5.49,1.18.91,2.63,1.37,4.36,1.37s3.22-.35,4.67-1.05c1.52-.7,2.84-1.62,3.95-2.74.48-.56,1.04-.77,1.66-.63.62.14,1.11.53,1.45,1.16.42.56.42,1.3,0,2.22-1.45,3.24-3.39,6.01-5.81,8.33-2.35,2.25-5.19,3.38-8.51,3.38h0Z"/><path class="cls-1" d="M113.15,103.54c-.94,0-1.4-.44-1.4-1.31,0-1.07.47-1.61,1.4-1.61,3.62,0,6.1-.44,7.44-1.31,1.34-.87,2.01-2.45,2.01-4.72v-55.39c0-1.94-.53-3.38-1.61-4.32-1-1-3.35-1.51-7.04-1.51-.87,0-1.31-.53-1.31-1.61,0-.87.44-1.31,1.31-1.31.6,0,2.31.03,5.12.1,2.82.07,6.03.1,9.65.1h6.83c2.14-.07,3.95-.1,5.43-.1,1.54-.07,2.48-.1,2.82-.1.94,0,1.41.44,1.41,1.31,0,1.07-.47,1.61-1.41,1.61-3.69,0-6.13.5-7.34,1.51-1.14.94-1.71,2.38-1.71,4.32v59.21c0,1.34.7,2.01,2.11,2.01h15.58c3.28,0,6.17-.94,8.64-2.82,2.55-1.88,4.69-4.19,6.43-6.94,1.81-2.82,3.22-5.56,4.22-8.24.2-.53.47-.87.8-1,.34-.2.64-.27.9-.2.53.07.87.27,1,.6.13.27.2.57.2.9v2.51c0,1.47-.03,3.25-.1,5.33,0,2.01-.03,3.95-.1,5.83,0,1.88-.03,3.29-.1,4.22-.07.87-.34,1.58-.81,2.11-.47.53-1.17.81-2.11.81h-3.72c-2.01-.07-5.03-.1-9.05-.1h-30.65c-4.29,0-7.74.03-10.35.1h-4.52,0Z"/><path class="cls-1" d="M201.64,104.74c-4.83,0-9.01-1.07-12.56-3.22-3.55-2.21-6.3-5.19-8.24-8.94-1.95-3.75-2.91-8.04-2.91-12.87s.97-9.12,2.91-12.87c1.95-3.75,4.69-6.7,8.24-8.85,3.55-2.14,7.74-3.22,12.56-3.22s8.98,1.07,12.46,3.22c3.55,2.14,6.3,5.09,8.24,8.85,1.95,3.75,2.92,8.04,2.92,12.87s-.97,9.12-2.92,12.87c-1.94,3.75-4.69,6.74-8.24,8.94-3.48,2.14-7.64,3.22-12.46,3.22ZM201.64,101.32c4.15,0,7.14-1.98,8.94-5.93,1.88-4.02,2.82-9.25,2.82-15.68s-.93-11.53-2.82-15.48c-1.81-4.02-4.79-6.03-8.94-6.03s-7.17,2.01-9.05,6.03c-1.88,3.95-2.82,9.12-2.82,15.48s.94,11.66,2.82,15.68c1.88,3.95,4.89,5.93,9.05,5.93Z"/><path class="cls-1" d="M252.74,124.94c-8.31,0-14.34-1.04-18.09-3.11-3.69-2.08-5.53-4.96-5.53-8.65,0-2.61.84-4.72,2.51-6.33,1.68-1.54,3.52-2.75,5.53-3.62.33-.13.5-.37.5-.71s-.13-.53-.4-.6c-2.01-.81-3.65-1.81-4.93-3.01-1.21-1.27-1.81-2.95-1.81-5.03,0-1.54.37-2.82,1.11-3.82.81-1.07,1.71-1.91,2.72-2.51,1.07-.67,2.04-1.14,2.92-1.41.93-.34,1.57-.57,1.91-.71.53-.2.77-.44.71-.71-.07-.27-.27-.5-.6-.71-2.61-1.74-4.49-3.59-5.63-5.53-1.14-2.01-1.71-4.42-1.71-7.24,0-3.29.97-6.17,2.92-8.65,1.95-2.48,4.49-4.39,7.64-5.73,3.15-1.41,6.53-2.11,10.15-2.11,2.41,0,4.89.37,7.44,1.11,2.54.74,4.69,1.68,6.43,2.82.94.6,1.64.57,2.11-.1.8-1.21,2.08-2.31,3.82-3.32,1.74-1,3.55-1.51,5.43-1.51,2.14,0,3.82.67,5.03,2.01,1.27,1.27,1.91,2.58,1.91,3.92,0,1.47-.47,2.64-1.41,3.52-.93.87-2.24,1.31-3.92,1.31-1.07,0-1.84-.2-2.31-.6-.47-.47-.87-.97-1.21-1.51-.27-.6-.64-1.11-1.11-1.51-.4-.47-1.17-.71-2.31-.71-.47,0-.87.17-1.21.5-.34.27-.57.5-.71.71-.27.34-.2.77.2,1.31.94,1.21,1.61,2.55,2.01,4.02.4,1.47.6,2.98.6,4.53,0,4.89-1.81,8.88-5.43,11.96-3.62,3.01-8.75,4.53-15.38,4.53-1.61,0-3.08-.07-4.42-.2-1.34-.2-2.54-.4-3.62-.6-1.67-.34-3.18-.13-4.52.6-1.28.74-1.91,1.54-1.91,2.42,0,.94.87,1.74,2.61,2.42,1.74.6,3.92,1.11,6.54,1.51,2.61.4,5.26.74,7.94,1,2.68.2,4.99.4,6.93.6,4.83.47,8.68,1.84,11.56,4.12,2.88,2.28,4.32,5.43,4.32,9.45,0,5.09-2.24,9.01-6.73,11.76-4.42,2.75-10.62,4.12-18.6,4.12h0ZM252.45,121.02c2.95,0,5.63-.3,8.04-.9,2.48-.53,4.42-1.44,5.83-2.71,1.47-1.27,2.21-2.95,2.21-5.03,0-1.74-.64-3.15-1.91-4.22-1.27-1-2.98-1.77-5.12-2.31-2.14-.53-4.53-.94-7.14-1.21-2.55-.27-5.13-.53-7.74-.81-.93-.13-1.71-.17-2.31-.1-.53.07-1.11.37-1.71.9-1.07.94-2.05,2.11-2.92,3.52-.81,1.41-1.21,2.92-1.21,4.53,0,2.82,1.11,4.89,3.32,6.23,2.28,1.4,5.83,2.11,10.65,2.11h.01ZM252.65,84.63c3.15,0,5.43-1.24,6.83-3.72,1.48-2.55,2.21-5.77,2.21-9.65s-.74-7.07-2.21-9.55c-1.4-2.48-3.69-3.72-6.83-3.72s-5.36,1.24-6.83,3.72c-1.41,2.48-2.11,5.66-2.11,9.55s.7,7.1,2.11,9.65c1.47,2.48,3.75,3.72,6.83,3.72Z"/><path class="cls-1" d="M306.37,104.74c-4.83,0-9.01-1.07-12.56-3.22-3.55-2.21-6.3-5.19-8.24-8.94-1.95-3.75-2.92-8.04-2.92-12.87s.97-9.12,2.92-12.87c1.95-3.75,4.69-6.7,8.24-8.85,3.55-2.14,7.74-3.22,12.56-3.22s8.98,1.07,12.47,3.22c3.55,2.14,6.3,5.09,8.24,8.85,1.95,3.75,2.92,8.04,2.92,12.87s-.97,9.12-2.92,12.87c-1.95,3.75-4.69,6.74-8.24,8.94-3.48,2.14-7.64,3.22-12.47,3.22ZM306.37,101.32c4.16,0,7.14-1.98,8.94-5.93,1.88-4.02,2.82-9.25,2.82-15.68s-.93-11.53-2.82-15.48c-1.81-4.02-4.79-6.03-8.94-6.03s-7.17,2.01-9.05,6.03c-1.88,3.95-2.82,9.12-2.82,15.48s.93,11.66,2.82,15.68c1.88,3.95,4.89,5.93,9.05,5.93Z"/><path class="cls-1" d="M357.5,104.74c-2.41,0-4.86-.37-7.34-1.11-2.48-.67-4.56-1.34-6.23-2.01-.81-.34-1.54-.47-2.21-.4-.6.07-1.17.27-1.71.6-.4.27-.77.57-1.11.9-.27.27-.57.57-.9.9-.67.67-1.37.87-2.11.6-.67-.27-1.01-.87-1.01-1.81v-13.97c0-.87.37-1.37,1.11-1.51.81-.13,1.41.13,1.81.81,5.02,8.24,11.66,12.36,19.9,12.36,3.22,0,5.93-.67,8.14-2.01,2.28-1.34,3.42-3.32,3.42-5.93,0-1.74-.8-3.08-2.41-4.02-1.61-.94-3.69-1.68-6.23-2.21-2.54-.6-5.22-1.24-8.04-1.91-2.82-.67-5.5-1.58-8.04-2.71-2.54-1.14-4.62-2.71-6.23-4.72-1.61-2.08-2.42-4.82-2.42-8.24,0-2.28.6-4.46,1.81-6.53,1.27-2.08,3.18-3.75,5.73-5.03,2.54-1.34,5.76-2.01,9.65-2.01,2.21,0,4.39.27,6.53.81,2.21.47,4.12,1.04,5.73,1.71,1.88.74,3.22.77,4.02.1.34-.27.67-.53,1-.81.4-.34.77-.64,1.11-.9.6-.4,1.14-.53,1.61-.4.53.07.81.53.81,1.41v12.57c0,.87-.4,1.41-1.21,1.61-.81.13-1.37-.13-1.71-.81-1.68-3.95-4.05-6.8-7.14-8.54-3.08-1.74-6.17-2.61-9.25-2.61-3.48,0-6.13.77-7.94,2.31-1.81,1.47-2.72,3.18-2.72,5.13,0,1.61.8,2.85,2.41,3.72,1.61.81,3.65,1.47,6.13,2.01,2.54.47,5.23,1,8.04,1.61,2.82.53,5.46,1.37,7.94,2.51,2.54,1.14,4.62,2.78,6.23,4.93,1.61,2.08,2.41,4.89,2.41,8.44,0,2.82-.81,5.4-2.41,7.74-1.61,2.28-3.89,4.09-6.83,5.43-2.95,1.34-6.4,2.01-10.35,2.01h0Z"/></svg>
