<?xml version="1.0" encoding="UTF-8"?><svg id="Layer_1" xmlns="http://www.w3.org/2000/svg" width="40" height="40" viewBox="0 0 105 128"><defs><style>.cls-1{fill:#152521;}</style></defs><path class="cls-1" d="M69.11,106.88c-2.98,0-5.54-.7-7.68-2.11-2.15-1.41-3.77-3.62-4.88-6.64-.69-2.04-1.18-4.53-1.45-7.49-.28-2.95-.45-6.05-.52-9.28-.07-3.3-.14-6.5-.21-9.6,0-.84-.21-1.27-.62-1.27-.34,0-.69.28-1.04.84-1.31,2.46-2.87,5.27-4.67,8.44-1.73,3.16-3.46,6.33-5.19,9.49-1.73,3.16-3.29,6.01-4.67,8.54-1.31,2.46-2.25,4.25-2.8,5.38-.69,1.55-1.8,2.53-3.32,2.95-1.45.49-3.29.6-5.5.31-2.22-.28-3.77-1.16-4.67-2.64-.97-1.55-.8-3.16.52-4.85.9-1.13,2.18-2.81,3.84-5.06,1.66-2.32,3.53-4.92,5.6-7.8,2.08-2.95,4.19-5.97,6.33-9.07,2.22-3.16,4.29-6.19,6.23-9.07,1.94-2.95,3.56-5.52,4.88-7.7,1.39-2.25,2.28-3.9,2.7-4.96.42-.98.86-2.07,1.35-3.27.48-1.19.73-2.42.73-3.69,0-4.64-.45-8.12-1.35-10.44-.83-2.39-1.97-3.97-3.43-4.75-1.39-.84-2.91-1.27-4.57-1.27-1.25,0-2.59.25-4.05.74-1.39.49-2.28.95-2.7,1.37-.76.77-1.49.91-2.18.42-.69-.49-.9-1.3-.62-2.42.76-2.6,2.15-4.92,4.15-6.96,2.02-2.11,4.82-3.16,8.42-3.16,3.81,0,6.82,1.09,9.03,3.27,2.22,2.18,3.81,5.66,4.78,10.44.97,4.78,1.45,11.11,1.45,18.98,0,9.28.14,16.7.42,22.25.28,5.55.73,9.74,1.35,12.55.62,2.74,1.49,4.57,2.59,5.49,1.18.91,2.63,1.37,4.36,1.37s3.22-.35,4.67-1.05c1.52-.7,2.84-1.62,3.95-2.74.48-.56,1.04-.77,1.66-.63.62.14,1.11.53,1.45,1.16.42.56.42,1.3,0,2.22-1.45,3.24-3.39,6.01-5.81,8.33-2.35,2.25-5.19,3.38-8.51,3.38h0Z"/></svg>
