<svg width="178" height="179" viewBox="0 0 178 179" fill="none" xmlns="http://www.w3.org/2000/svg">
<path d="M9.53764 126.653C9.0714 126.653 8.61336 126.533 8.20966 126.307C7.80596 126.08 7.47074 125.754 7.23762 125.362C7.05313 125.07 6.9306 124.744 6.87701 124.405C6.82341 124.066 6.83971 123.72 6.92536 123.387C7.01101 123.055 7.16426 122.742 7.37582 122.467C7.58737 122.192 7.85307 121.961 8.15756 121.788C23.7908 112.363 38.3832 101.4 51.7034 89.0713C38.4687 76.63 23.905 65.596 8.25988 56.1564C7.68761 55.7805 7.28474 55.2066 7.13374 54.5518C6.98274 53.897 7.09503 53.2109 7.44756 52.6339C7.80009 52.0568 8.36606 51.6324 9.03009 51.4474C9.69412 51.2624 10.4059 51.3308 11.0197 51.6386C27.8146 61.7755 43.382 73.7159 57.4277 87.2344C57.9178 87.7174 58.1923 88.3683 58.1923 89.0465C58.1923 89.7246 57.9178 90.3755 57.4277 90.8585C43.3557 104.332 27.7519 116.207 10.9174 126.256C10.51 126.522 10.0286 126.661 9.53764 126.653Z" fill="black"/>
<path d="M168.462 126.652C167.97 126.667 167.487 126.527 167.082 126.255C150.248 116.206 134.644 104.331 120.572 90.8581C120.082 90.3751 119.808 89.7242 119.808 89.0461C119.808 88.368 120.082 87.7171 120.572 87.2341C134.618 73.7157 150.185 61.7754 166.98 51.6386C167.594 51.3308 168.306 51.2624 168.97 51.4474C169.634 51.6324 170.2 52.0568 170.552 52.6339C170.905 53.2109 171.017 53.897 170.866 54.5517C170.715 55.2065 170.312 55.7805 169.74 56.1563C154.095 65.5958 139.531 76.6298 126.297 89.0709C139.617 101.4 154.209 112.363 169.842 121.787C170.147 121.961 170.413 122.192 170.624 122.466C170.836 122.741 170.989 123.054 171.074 123.387C171.16 123.719 171.177 124.065 171.123 124.405C171.069 124.744 170.947 125.069 170.762 125.361C170.529 125.754 170.194 126.079 169.79 126.306C169.386 126.532 168.929 126.652 168.462 126.652Z" fill="black"/>
<path d="M88.9167 58.1915C88.2335 58.1819 87.5785 57.9084 87.0817 57.425C73.6414 43.3388 61.7819 27.7389 51.7262 10.9198C51.5472 10.6187 51.428 10.2838 51.376 9.9348C51.324 9.58578 51.3401 9.22957 51.4232 8.88699C51.5063 8.54442 51.6547 8.22237 51.86 7.93962C52.0652 7.65688 52.3233 7.41913 52.6187 7.24026C52.9147 7.05459 53.2432 6.93105 53.5857 6.8768C53.9282 6.82255 54.2777 6.83864 54.6141 6.92413C54.9506 7.00963 55.2673 7.16285 55.546 7.37497C55.8248 7.58709 56.0602 7.85395 56.2385 8.16015C65.6325 23.8054 76.5846 38.398 88.9167 51.7013C101.343 38.4679 112.364 23.9058 121.793 8.26234C121.966 7.95788 122.197 7.69213 122.472 7.4806C122.746 7.26907 123.058 7.11599 123.391 7.03034C123.723 6.9447 124.069 6.92821 124.407 6.9818C124.746 7.03539 125.071 7.15799 125.363 7.34245C125.958 7.70491 126.391 8.29431 126.567 8.98299C126.743 9.67167 126.649 10.4042 126.305 11.022C116.161 27.8013 104.237 43.3648 90.7514 57.425C90.2601 57.9172 89.6018 58.1923 88.9167 58.1915Z" fill="black"/>
<path d="M53.9574 171.154C53.4846 171.137 53.0236 170.996 52.6184 170.745C52.323 170.566 52.0652 170.328 51.86 170.046C51.6547 169.763 51.5063 169.441 51.4232 169.099C51.3401 168.756 51.324 168.4 51.376 168.051C51.428 167.702 51.5469 167.368 51.7259 167.067C61.768 150.243 73.629 134.647 87.0817 120.576C87.5725 120.083 88.2308 119.807 88.9164 119.807C89.6019 119.807 90.2602 120.083 90.7511 120.576C104.236 134.632 116.161 150.191 126.305 166.964C126.649 167.582 126.743 168.314 126.567 169.003C126.391 169.691 125.958 170.28 125.363 170.643C125.071 170.827 124.746 170.95 124.407 171.003C124.069 171.057 123.723 171.04 123.391 170.955C123.058 170.869 122.746 170.716 122.471 170.505C122.197 170.293 121.966 170.027 121.793 169.723C112.364 154.085 101.343 139.527 88.9164 126.298C76.5843 139.597 65.6325 154.185 56.2385 169.825C56.0043 170.233 55.6703 170.57 55.27 170.803C54.8697 171.036 54.4171 171.157 53.9574 171.154Z" fill="black"/>
<path d="M175.366 82.1542C156.151 81.8705 137.027 79.3296 118.35 74.5791C118.02 74.4935 117.709 74.3404 117.436 74.1287C117.163 73.9169 116.932 73.6506 116.756 73.3449C116.581 73.0393 116.464 72.7002 116.414 72.3473C116.363 71.9943 116.379 71.6343 116.461 71.2879C121.225 51.7314 128.079 32.8039 136.891 14.8664C137.26 14.3166 137.806 13.9266 138.428 13.7694C139.051 13.6121 139.706 13.6983 140.272 14.0119C140.839 14.3254 141.277 14.8449 141.505 15.4732C141.734 16.1016 141.737 16.7958 141.514 17.4263C133.368 34.0971 126.871 51.603 122.127 69.6684C139.586 73.9534 157.439 76.2133 175.366 76.4076C175.709 76.4006 176.05 76.4658 176.37 76.5992C176.689 76.7326 176.98 76.9316 177.225 77.1845C177.471 77.4375 177.666 77.7393 177.799 78.0724C177.932 78.4054 178 78.763 178 79.1242C178 79.8585 177.723 80.5628 177.228 81.082C176.734 81.6013 176.064 81.893 175.366 81.893V82.1542Z" fill="black"/>
<path d="M38.9718 164.307C38.5554 164.309 38.1452 164.202 37.7788 163.994C37.4726 163.83 37.2007 163.603 36.9794 163.326C36.758 163.05 36.5915 162.73 36.4897 162.386C36.3878 162.041 36.3527 161.679 36.3862 161.32C36.4198 160.961 36.5214 160.612 36.6851 160.295C44.8105 143.556 51.2416 125.972 55.8729 107.829C38.3871 103.748 20.5469 101.566 2.63471 101.316C2.2911 101.323 1.94953 101.258 1.63016 101.125C1.31079 100.992 1.01989 100.794 0.774575 100.541C0.529259 100.289 0.334455 99.9879 0.201456 99.6558C0.0684578 99.3236 -6.35105e-05 98.967 4.41727e-08 98.6068C4.41722e-08 97.8745 0.277768 97.1721 0.771844 96.6542C1.26592 96.1363 1.93598 95.8454 2.63471 95.8454C21.8485 95.9521 40.9841 98.4176 59.6505 103.192C59.9802 103.277 60.2909 103.43 60.5643 103.641C60.8377 103.852 61.0688 104.118 61.2442 104.423C61.4196 104.728 61.5358 105.066 61.5864 105.418C61.6371 105.77 61.6212 106.129 61.5394 106.474C56.8327 126.001 50.0465 144.911 41.3082 162.848C41.0822 163.291 40.7451 163.661 40.3334 163.918C39.9217 164.175 39.451 164.309 38.9718 164.307Z" fill="black"/>
<path d="M106.187 61.6154C105.622 61.6116 105.075 61.4192 104.629 61.0681C104.184 60.7171 103.866 60.2271 103.725 59.6744C98.9699 41.0422 96.3268 21.9239 95.8462 2.68805C95.8457 1.99218 96.1125 1.32324 96.59 0.821988C97.0676 0.320738 97.7188 0.0262515 98.4069 0.000478656C98.7473 -0.00613853 99.0853 0.0559121 99.4017 0.183007C99.7181 0.310101 100.006 0.499671 100.249 0.740653C100.492 0.981636 100.685 1.26918 100.817 1.58646C100.949 1.90375 101.017 2.2444 101.017 2.58849C101.551 20.5204 103.91 38.349 108.058 55.7924C125.107 50.8889 141.609 44.2174 157.3 35.8845C157.891 35.6444 158.548 35.6306 159.148 35.8458C159.747 36.0609 160.249 36.4901 160.557 37.0527C160.866 37.6153 160.961 38.2725 160.823 38.9006C160.686 39.5287 160.326 40.0844 159.812 40.4633C142.992 49.501 125.218 56.5964 106.827 61.6154H106.187Z" fill="black"/>
<path d="M79.6555 178.001C79.3169 178.007 78.9803 177.945 78.6656 177.818C78.3509 177.691 78.0642 177.501 77.8225 177.26C77.5807 177.018 77.3887 176.731 77.2577 176.413C77.1266 176.095 77.0591 175.754 77.0592 175.41C76.5169 157.466 74.1197 139.63 69.9073 122.196C52.9305 127.185 36.513 133.964 20.9223 142.425C20.6269 142.591 20.3022 142.696 19.9668 142.733C19.6313 142.77 19.2921 142.739 18.9685 142.642C18.6449 142.545 18.3433 142.383 18.0817 142.166C17.8201 141.949 17.6037 141.682 17.4446 141.379C17.2795 141.082 17.1737 140.754 17.1336 140.415C17.0935 140.076 17.12 139.732 17.2111 139.403C17.3021 139.074 17.4561 138.767 17.6643 138.499C17.8725 138.231 18.1309 138.007 18.4243 137.841C35.1203 128.739 52.7671 121.569 71.0341 116.466C71.6898 116.298 72.3842 116.396 72.9697 116.74C73.5552 117.085 73.9854 117.648 74.1689 118.31C78.9243 136.962 81.6026 156.099 82.1535 175.36C82.16 175.704 82.0992 176.047 81.9741 176.367C81.849 176.687 81.6624 176.978 81.4252 177.224C81.188 177.47 80.9048 177.665 80.5925 177.799C80.2802 177.932 79.9451 178.001 79.6065 178.001H79.6555Z" fill="black"/>
<path d="M73.3096 61.6146H72.5972C53.7394 56.0507 35.5739 48.4287 18.4403 38.891C17.8296 38.536 17.3858 37.9588 17.2048 37.2843C17.0238 36.6098 17.1202 35.8923 17.4732 35.2873C17.652 34.9832 17.8905 34.7171 18.1747 34.5044C18.4589 34.2917 18.7834 34.1367 19.129 34.0482C19.4747 33.9597 19.8345 33.9397 20.1881 33.9891C20.5417 34.0386 20.8819 34.1566 21.1888 34.3363C37.1459 43.1954 54.0002 50.3918 71.4773 55.8086C76.2975 38.395 79.2154 20.5254 80.1812 2.50321C80.2332 1.8129 80.5526 1.16853 81.0734 0.702902C81.5943 0.237278 82.2768 -0.0140977 82.9806 0.000610891C83.6872 0.0267153 84.3551 0.324575 84.8405 0.830063C85.326 1.33555 85.5903 2.00826 85.5765 2.70342C84.5369 22.0395 81.2754 41.1979 75.8546 59.8128C75.6882 60.3449 75.3497 60.809 74.8903 61.1343C74.4308 61.4596 73.8756 61.6283 73.3096 61.6146Z" fill="black"/>
<path d="M94.979 178.001C94.6259 177.988 94.2791 177.907 93.9587 177.761C93.6383 177.615 93.3508 177.408 93.1132 177.152C92.8756 176.897 92.6928 176.597 92.575 176.271C92.4573 175.944 92.4071 175.598 92.4277 175.253C93.3603 155.958 96.5444 136.831 101.918 118.246C102.012 117.919 102.171 117.613 102.387 117.348C102.603 117.082 102.871 116.861 103.175 116.698C103.479 116.535 103.814 116.434 104.159 116.399C104.504 116.364 104.852 116.398 105.184 116.497C124.119 121.969 142.364 129.511 159.576 138.98C159.88 139.155 160.145 139.387 160.356 139.664C160.567 139.94 160.72 140.255 160.805 140.59C160.891 140.925 160.908 141.273 160.854 141.615C160.801 141.956 160.678 142.283 160.494 142.577C160.132 143.177 159.544 143.613 158.856 143.79C158.168 143.968 157.437 143.873 156.82 143.527C140.803 134.693 123.87 127.558 106.306 122.243C101.52 139.635 98.5958 157.468 97.5812 175.453C97.5559 176.121 97.2738 176.755 96.7911 177.227C96.3085 177.7 95.661 177.976 94.979 178.001Z" fill="black"/>
<path d="M2.5875 82.1542C2.24355 82.1543 1.90293 82.0824 1.58579 81.9428C1.26864 81.8032 0.981331 81.5988 0.740451 81.3413C0.499571 81.0838 0.310007 80.7786 0.182966 80.4434C0.0559259 80.1082 -0.00613617 79.7498 0.000478195 79.3891C0.000478195 78.6696 0.273224 77.9796 0.758366 77.4709C1.24351 76.9621 1.9014 76.6763 2.5875 76.6763C20.5092 76.4822 38.3641 74.3493 55.8683 70.3114C51.2878 52.1243 44.8842 34.4967 36.7647 17.7234C36.4473 17.0788 36.3842 16.3293 36.5889 15.6364C36.7936 14.9435 37.25 14.3627 37.8593 14.0192C38.1623 13.8474 38.4949 13.7408 38.8377 13.7056C39.1804 13.6704 39.5265 13.7073 39.8555 13.8142C40.1845 13.9211 40.4899 14.0958 40.7536 14.3281C41.0174 14.5604 41.234 14.8456 41.3913 15.167C50.1108 33.0739 56.8698 51.9581 61.5394 71.4592C61.6212 71.8052 61.6372 72.1647 61.5864 72.5172C61.5357 72.8697 61.4195 73.2082 61.2439 73.5135C61.0683 73.8187 60.8371 74.0846 60.5635 74.2961C60.2898 74.5076 59.9789 74.6605 59.6489 74.7459C40.9539 79.4541 21.8129 81.9392 2.5875 82.1542Z" fill="black"/>
<path d="M139.078 164.306C138.605 164.311 138.14 164.177 137.736 163.919C137.332 163.661 137.004 163.291 136.791 162.848C127.983 144.946 121.162 126.046 116.461 106.518C116.379 106.173 116.363 105.814 116.414 105.462C116.464 105.111 116.581 104.773 116.756 104.468C116.932 104.163 117.162 103.898 117.436 103.687C117.709 103.476 118.02 103.323 118.35 103.238C137.047 98.5421 156.188 96.0622 175.415 95.8454C175.758 95.8454 176.099 95.9171 176.415 96.0564C176.732 96.1957 177.019 96.3997 177.26 96.6567C177.501 96.9136 177.69 97.2182 177.817 97.5527C177.944 97.8872 178.006 98.2449 178 98.6047C177.987 99.3323 177.705 100.026 177.214 100.541C176.722 101.056 176.06 101.351 175.365 101.364C157.465 101.596 139.638 103.795 122.177 107.924C126.844 126.031 133.291 143.583 141.414 160.297C141.633 160.715 141.743 161.186 141.732 161.662C141.722 162.139 141.592 162.604 141.354 163.01C141.117 163.417 140.782 163.751 140.382 163.978C139.983 164.206 139.533 164.319 139.078 164.306Z" fill="black"/>
</svg>
